<svg width="1280" height="135" viewBox="0 0 1280 135" fill="none" xmlns="http://www.w3.org/2000/svg">
<path d="M1.96213 0H58.9827C81.9103 0 109.103 5.39431 109.103 31.0864C109.103 47.6473 96.2491 56.4004 82.6381 60.3116C100.34 64.2229 118.42 73.1504 118.42 92.8811C118.42 123.037 89.1598 130.292 58.9827 130.292H1.96213C-0.832849 130.292 -0.454362 126.192 1.96213 124.709C9.41542 120.245 9.41542 94.7422 9.41542 65.5169C9.41542 36.2917 10.3471 10.6141 1.96213 5.58333C-0.468919 4.10026 -0.832849 0 1.96213 0ZM41.0919 57.6944C68.6632 57.3164 77.4267 50.25 77.4267 31.8279C77.4267 18.6111 72.2152 5.58333 58.9827 5.58333C40.1602 5.58333 40.9026 30.8974 41.0919 57.6944ZM41.0919 65.1389C41.0919 94.3641 39.6071 124.694 58.9827 124.694C77.0627 124.694 86.7433 107.755 86.7433 94.7276C86.7433 69.6026 73.5108 63.6413 41.0919 63.2778C41.0919 63.8448 41.0919 64.5864 41.0919 65.1389Z" fill="#E2CB9C"/>
<path d="M125.495 37.0332L159.588 34.0525C162.761 33.8635 164.988 35.9136 164.988 39.0833V56.2114C170.957 41.875 184.553 33.689 200.028 33.689C229.841 33.689 225.561 64.7754 205.996 64.7754C192.021 64.7754 192.764 46.7168 182.894 46.7168C170.782 46.7168 165.192 73.1504 165.003 75.0115V79.8533C165.003 95.6727 164.071 119.504 172.835 124.709C175.251 126.192 175.63 130.292 172.835 130.292H125.495C122.7 130.292 123.078 126.192 125.495 124.709C133.137 120.056 133.327 103.495 133.327 94.0007V68.6721C133.327 58.9885 132.773 46.8913 125.495 42.6165C123.078 41.1335 122.7 37.2222 125.495 37.0332Z" fill="#E2CB9C"/>
<path d="M229.098 37.2222L263.57 34.2415C266.743 33.8635 268.781 35.9136 268.781 39.0833C268.781 50.628 268.592 64.0193 268.592 77.9776C268.592 89.5224 264.487 124.694 282.378 124.694C302.874 124.694 301.564 100.689 301.564 100.689H301.753V67.7415C301.753 60.6751 302.685 48.3889 293.922 43.1691C291.505 41.686 291.127 37.7747 293.922 37.5857L328.014 34.605C331.188 34.227 333.415 36.2771 333.415 39.4468V80.2023C333.415 96.0217 332.105 120.216 341.247 124.869C344.042 126.352 344.042 130.263 340.315 130.263C320.197 130.263 308.639 125.61 304.17 115.374C300.822 122.819 294.3 130.263 280.878 130.263C260.935 130.263 236.901 120.58 236.901 83.9245C236.901 68.105 237.833 47.9963 229.069 42.791C226.667 41.3225 226.303 37.4112 229.098 37.2222Z" fill="#E2CB9C"/>
<path d="M458.665 79.8388C458.665 95.6582 457.734 119.489 466.497 124.694C468.914 126.178 469.292 130.278 466.497 130.278H419.172C416.377 130.278 416.755 126.178 419.172 124.694C426.814 120.042 427.003 95.6582 427.003 85.8001C427.003 74.2554 431.109 39.0833 412.097 39.0833C396.259 39.0833 394.206 55.2808 394.017 61.0386V79.8388C394.017 95.6582 393.085 119.489 401.849 124.694C404.265 126.178 404.644 130.278 401.849 130.278H354.523C351.728 130.278 352.107 126.178 354.523 124.694C362.166 120.042 362.355 103.481 362.355 93.9861V68.6721C362.355 58.9885 361.802 46.8913 354.523 42.6165C352.107 41.1335 351.728 37.2222 354.523 37.0332L388.616 34.0525C391.79 33.8635 394.017 35.9136 394.017 39.0833V43.7361C397.744 38.3418 404.076 33.689 414.703 33.689C434.617 33.689 458.665 43.1836 458.665 79.8388Z" fill="#E2CB9C"/>
<path d="M515.118 79.0972C526.851 74.4444 538.788 72.9614 539.531 62.1582C538.977 48.5779 536.182 39.2724 525.934 39.2724C515.875 39.2724 512.891 51.3696 509.717 59.003C506.733 66.0694 501.332 68.8611 495.932 68.8611C488.857 68.8611 481.957 63.6558 481.578 55.6443C480.647 36.1026 512.134 33.689 525.366 33.689C547.173 33.689 571.018 43.1836 571.018 79.8533C571.018 95.6727 570.086 119.315 578.85 124.52C581.266 126.003 581.645 130.292 571.586 130.292C551.278 130.292 543.636 123.4 540.841 114.095C536.372 123.778 527.797 130.292 513.255 130.292C488.289 130.292 473.747 119.867 473.747 106.476C473.747 89.5224 501.886 84.3171 515.118 79.0972ZM505.423 107.203C505.423 111.667 508.407 123.953 519.951 123.953C536.343 123.953 539.327 104.033 539.327 91.3835C539.327 84.8696 539.516 78.5447 539.516 72.7724C534.858 77.0471 527.783 80.0278 520.883 83.0085C511.945 86.9197 505.423 92.8811 505.423 107.203Z" fill="#E2CB9C"/>
<path d="M638.272 0H695.293C718.22 0 745.413 5.39431 745.413 31.0864C745.413 47.6473 732.559 56.4004 718.948 60.3116C736.65 64.2229 754.73 73.1504 754.73 92.8811C754.73 123.037 725.47 130.292 695.293 130.292H638.272C635.477 130.292 635.856 126.192 638.272 124.709C645.725 120.245 645.725 94.7422 645.725 65.5169C645.725 36.2917 646.657 10.6141 638.272 5.58333C635.856 4.10026 635.477 0 638.272 0ZM677.402 57.6944C704.973 57.3164 713.737 50.25 713.737 31.8279C713.737 18.6111 708.525 5.58333 695.293 5.58333C676.47 5.58333 677.213 30.8974 677.402 57.6944ZM677.402 65.1389C677.402 94.3641 675.917 124.694 695.293 124.694C713.373 124.694 723.053 107.755 723.053 94.7276C723.053 69.6026 709.821 63.6413 677.402 63.2778C677.402 63.8448 677.402 64.5864 677.402 65.1389Z" fill="#E2CB9C"/>
<path d="M804.486 79.0972C816.219 74.4444 828.156 72.9614 828.899 62.1582C828.345 48.5779 825.551 39.2724 815.302 39.2724C805.243 39.2724 802.259 51.3696 799.086 59.003C796.101 66.0694 790.701 68.8611 785.3 68.8611C778.225 68.8611 771.325 63.6558 770.946 55.6443C770.015 36.1026 801.502 33.689 814.734 33.689C836.541 33.689 860.386 43.1836 860.386 79.8533C860.386 95.6727 859.454 119.315 868.218 124.52C870.634 126.003 871.013 130.292 860.954 130.292C840.646 130.292 833.004 123.4 830.209 114.095C825.74 123.778 817.166 130.292 802.623 130.292C777.657 130.292 763.115 119.867 763.115 106.476C763.115 89.5224 791.254 84.3171 804.486 79.0972ZM794.791 107.203C794.791 111.667 797.775 123.953 809.319 123.953C825.711 123.953 828.695 104.033 828.695 91.3835C828.695 84.8696 828.884 78.5447 828.884 72.7724C824.226 77.0471 817.151 80.0278 810.251 83.0085C801.313 86.9197 794.791 92.8811 794.791 107.203Z" fill="#E2CB9C"/>
<path d="M880.125 37.0332L914.218 34.0525C917.392 33.8635 919.619 35.9136 919.619 39.0833V56.2114C925.588 41.875 939.184 33.689 954.658 33.689C984.471 33.689 980.192 64.7754 960.627 64.7754C946.652 64.7754 947.394 46.7168 937.525 46.7168C925.413 46.7168 919.823 73.1504 919.634 75.0115V79.8533C919.634 95.6727 918.702 119.504 927.465 124.709C929.882 126.192 930.26 130.292 927.465 130.292H880.125C877.33 130.292 877.709 126.192 880.125 124.709C887.768 120.056 887.957 103.495 887.957 94.0007V68.6721C887.957 58.9885 887.404 46.8913 880.125 42.6165C877.709 41.1335 877.33 37.2222 880.125 37.0332Z" fill="#E2CB9C"/>
<path d="M984.661 37.0332L1018.75 34.0525C1021.93 33.8635 1024.15 35.9136 1024.15 39.0833V56.2114C1030.12 41.875 1043.72 33.689 1059.19 33.689C1089.01 33.689 1084.73 64.7754 1065.16 64.7754C1051.19 64.7754 1051.93 46.7168 1042.06 46.7168C1029.95 46.7168 1024.36 73.1504 1024.17 75.0115V79.8533C1024.17 95.6727 1023.24 119.504 1032 124.709C1034.42 126.192 1034.8 130.292 1032 130.292H984.675C981.88 130.292 982.259 126.192 984.675 124.709C992.318 120.056 992.507 103.495 992.507 94.0007V68.6721C992.507 58.9885 991.954 46.8913 984.675 42.6165C982.244 41.1335 981.866 37.2222 984.661 37.0332Z" fill="#E2CB9C"/>
<path d="M1082.86 83.75C1082.86 56.2114 1105.6 33.689 1133.17 33.689C1160.57 33.689 1183.29 56.2114 1183.29 83.75C1183.29 111.114 1160.74 134 1133.17 134C1105.59 134 1082.86 111.114 1082.86 83.75ZM1116.21 91.7615C1124.98 109.82 1136.9 125.072 1147.7 125.072C1149.38 125.072 1151.05 124.694 1152.55 123.953C1164.11 118.37 1159.62 96.4143 1149.75 75.753C1141.18 57.6944 1129.26 42.4421 1118.63 42.4421C1116.96 42.4421 1115.28 42.8201 1113.78 43.5616C1102.24 49.1304 1106.52 70.9112 1116.21 91.7615Z" fill="#E2CB9C"/>
<path d="M1200.81 95.4837C1205.65 95.4837 1210.5 98.0864 1212.92 103.859C1217.39 114.836 1228.01 128.053 1238.45 128.053C1245.16 128.053 1248.51 123.4 1248.51 118.195C1248.51 95.6727 1190.56 90.4674 1190.56 60.3116C1190.56 43.0091 1206.95 33.7036 1236.95 33.7036C1250.55 33.7036 1269.37 39.0979 1274.41 50.8316C1278.88 60.8787 1271.23 69.6317 1262.3 69.6317C1257.64 69.6317 1252.6 67.2181 1248.87 61.4457C1239.75 46.9349 1235.83 39.4905 1229.69 39.4905C1223.72 39.4905 1222.23 45.6263 1222.23 49.3485C1222.23 77.6432 1280 81.7289 1280 105.923C1280 125.276 1257.45 134.029 1233.78 134.029C1218.87 134.029 1190.54 128.998 1186.82 111.885C1184.78 102.172 1192.8 95.4837 1200.81 95.4837Z" fill="#E2CB9C"/>
</svg>
