<svg width="32" height="32" viewBox="0 0 32 32" fill="none" xmlns="http://www.w3.org/2000/svg">
<g clip-path="url(#clip0_259_528)">
<path d="M13.3379 9.02514C12.6319 8.31912 12.2353 7.36156 12.2353 6.36309C12.2353 5.36463 12.6319 4.40706 13.3379 3.70105C14.044 2.99503 15.0015 2.59839 16 2.59839C16.9985 2.59839 17.956 2.99503 18.662 3.70105C19.3681 4.40706 19.7647 5.36463 19.7647 6.36309C19.7647 7.36156 19.3681 8.31912 18.662 9.02514C17.956 9.73116 16.9985 10.1278 16 10.1278C15.0015 10.1278 14.044 9.73116 13.3379 9.02514Z" fill="black"/>
<path d="M23.1766 22.5007L16 29.8926L8.82337 22.5007C8.41518 22.0857 8.09071 21.5918 7.86864 21.0472C7.64658 20.5026 7.5313 19.9181 7.52944 19.3275C7.52759 18.7368 7.63919 18.1516 7.85783 17.6055C8.07647 17.0595 8.39782 16.5633 8.8034 16.1457C9.20898 15.728 9.69077 15.3971 10.221 15.1719C10.7513 14.9468 11.3196 14.8319 11.8931 14.8338C12.4667 14.8357 13.0343 14.9544 13.5631 15.1831C14.0919 15.4118 14.5716 15.7459 14.9746 16.1662L16 17.2208L17.0254 16.1662C17.4284 15.7459 17.9081 15.4118 18.4369 15.1831C18.9658 14.9544 19.5333 14.8357 20.1069 14.8338C20.6804 14.8319 21.2487 14.9468 21.779 15.1719C22.3092 15.3971 22.791 15.728 23.1966 16.1457C23.6022 16.5633 23.9235 17.0595 24.1422 17.6055C24.3608 18.1516 24.4724 18.7368 24.4706 19.3275C24.4687 19.9181 24.3534 20.5026 24.1314 21.0472C23.9093 21.5918 23.5848 22.0857 23.1766 22.5007Z" fill="black"/>
</g>
<defs>
<clipPath id="clip0_259_528">
<rect width="32" height="32" fill="white"/>
</clipPath>
</defs>
</svg>
