<svg width="380" height="380" viewBox="0 0 380 380" fill="none" xmlns="http://www.w3.org/2000/svg">
<path d="M132.774 161.431L143.224 171.837C147.994 176.588 154.128 179.076 160.716 179.076C167.305 179.076 173.438 176.588 178.209 171.837L197.292 152.835C224.553 125.688 268.853 125.688 296.114 152.835L333.144 189.708C333.826 189.03 334.28 188.351 334.962 187.446C363.586 149.441 355.862 95.3749 317.696 66.8713C299.295 53.0719 276.35 47.1902 253.632 50.3573C230.687 53.5244 210.241 65.514 196.383 83.8377C195.929 84.5164 195.247 84.9688 194.793 85.4213L132.546 147.405C128.684 151.251 128.684 157.585 132.774 161.431Z" fill="black"/>
<path d="M252.951 205.091L285.21 237.214L320.422 202.603L283.165 165.503C262.946 145.369 230.233 145.369 210.014 165.503L190.931 184.505C182.753 192.649 172.075 196.947 160.716 196.947C149.358 196.947 138.453 192.423 130.502 184.505L120.052 174.099C109.147 163.241 109.147 145.369 120.052 134.285L177.073 77.5036C175.71 75.9201 174.347 74.5628 172.984 73.2054C156.627 57.5963 135.045 49 112.555 49C112.1 49 111.646 49 111.419 49C88.2467 49.2262 66.6649 58.5012 50.5352 75.0152C17.3673 108.948 18.0488 163.693 52.1255 196.721L189.114 332L224.326 297.388L192.294 265.492C188.659 261.872 188.659 256.217 192.294 252.597C195.929 248.978 201.608 248.978 205.243 252.597L237.275 284.72L272.488 250.109L240.229 217.986C236.594 214.366 236.594 208.711 240.229 205.091C243.636 201.698 249.543 201.698 252.951 205.091Z" fill="black"/>
</svg>
