<svg width="532" height="69" viewBox="0 0 532 69" fill="none" xmlns="http://www.w3.org/2000/svg">
<g clip-path="url(#clip0_176_472)">
<path d="M201.291 0H230.701C242.48 0 256.509 2.76898 256.509 16.0152C256.509 24.5466 249.907 29.0369 242.855 31.0575C252.008 33.0781 261.311 37.6432 261.311 47.821C261.311 63.3124 246.231 67.0542 230.701 67.0542H201.291C199.866 67.0542 200.016 64.9588 201.291 64.2104C205.117 61.8905 205.117 48.7939 205.117 33.7516C205.117 18.7093 205.568 5.46312 201.291 2.91866C200.016 2.09544 199.866 0 201.291 0ZM221.473 29.7104C235.653 29.4859 240.229 25.8937 240.229 16.3894C240.229 9.57917 237.528 2.91866 230.701 2.91866C220.948 2.84382 221.323 15.8655 221.473 29.7104ZM221.473 33.5271C221.473 48.5694 220.723 64.2104 230.701 64.2104C240.004 64.2104 245.031 55.5293 245.031 48.7939C245.031 35.8471 238.203 32.7787 221.473 32.6291C221.473 32.8536 221.473 33.2278 221.473 33.5271Z" fill="white"/>
<path d="M286.969 40.7115C293.046 38.3167 299.198 37.5683 299.574 32.0304C299.273 25.0705 297.848 20.2809 292.596 20.2809C287.42 20.2809 285.844 26.4924 284.268 30.4588C282.768 34.1258 279.917 35.5477 277.141 35.5477C273.465 35.5477 269.939 32.8536 269.714 28.7375C269.264 18.7093 285.469 17.4371 292.296 17.4371C303.55 17.4371 315.854 22.3015 315.854 41.1605C315.854 49.3178 315.404 61.4414 319.905 64.1356C321.181 64.8839 321.331 67.1291 316.154 67.1291C305.651 67.1291 301.749 63.6117 300.324 58.8221C297.998 63.8362 293.572 67.1291 286.144 67.1291C273.24 67.1291 265.812 61.7408 265.812 54.8557C265.587 46.0998 280.142 43.4056 286.969 40.7115ZM281.943 55.1551C281.943 57.475 283.443 63.7614 289.445 63.7614C297.923 63.7614 299.423 53.5087 299.423 46.9978C299.423 43.6301 299.498 40.4121 299.498 37.4187C297.098 39.5889 293.421 41.1605 289.895 42.6573C285.319 44.7527 281.943 47.821 281.943 55.1551Z" fill="white"/>
<path d="M325.907 19.0835L343.463 17.5868C345.113 17.5119 346.239 18.5596 346.239 20.2061V29.0369C349.315 21.628 356.292 17.4371 364.32 17.4371C379.7 17.4371 377.449 33.4523 367.396 33.4523C360.193 33.4523 360.569 24.1724 355.467 24.1724C349.24 24.1724 346.314 37.7928 346.239 38.7657V41.2354C346.239 49.3926 345.789 61.6659 350.29 64.2852C351.566 65.0336 351.716 67.1291 350.29 67.1291H325.907C324.482 67.1291 324.632 65.0336 325.907 64.2852C329.808 61.8905 329.958 53.359 329.958 48.4946V35.3232C329.958 30.3091 329.658 24.0976 325.907 21.9273C324.707 21.179 324.482 19.1583 325.907 19.0835Z" fill="white"/>
<path d="M379.775 19.0835L397.331 17.5868C398.981 17.5119 400.107 18.5596 400.107 20.2061V29.0369C403.183 21.628 410.16 17.4371 418.188 17.4371C433.568 17.4371 431.317 33.4523 421.264 33.4523C414.061 33.4523 414.436 24.1724 409.335 24.1724C403.108 24.1724 400.182 37.7928 400.107 38.7657V41.2354C400.107 49.3926 399.657 61.6659 404.158 64.2852C405.433 65.0336 405.583 67.1291 404.158 67.1291H379.775C378.349 67.1291 378.5 65.0336 379.775 64.2852C383.676 61.8905 383.826 53.359 383.826 48.4946V35.3232C383.826 30.3091 383.526 24.0976 379.775 21.9273C378.575 21.179 378.349 19.1583 379.775 19.0835Z" fill="white"/>
<path d="M430.417 43.1063C430.417 28.962 442.12 17.3623 456.375 17.3623C470.48 17.3623 482.184 28.962 482.184 43.1063C482.184 57.1757 470.555 69 456.375 69C442.12 69 430.417 57.1757 430.417 43.1063ZM447.597 47.2223C452.099 56.5022 458.251 64.3601 463.803 64.3601C464.703 64.3601 465.528 64.1356 466.278 63.7614C472.205 60.9176 469.955 49.6171 464.853 38.9154C460.426 29.6356 454.274 21.7777 448.798 21.7777C447.897 21.7777 447.072 22.0022 446.322 22.3764C440.395 25.295 442.571 36.5206 447.597 47.2223Z" fill="white"/>
<path d="M491.187 49.1681C493.662 49.1681 496.213 50.5152 497.414 53.5087C499.739 59.1963 505.216 65.9317 510.543 65.9317C513.994 65.9317 515.72 63.5369 515.72 60.8427C515.72 49.243 485.86 46.5488 485.86 31.0575C485.86 22.1518 494.338 17.3623 509.793 17.3623C516.77 17.3623 526.523 20.1312 529.074 26.1931C531.4 31.3568 527.424 35.8471 522.847 35.8471C520.446 35.8471 517.82 34.5748 515.945 31.6562C511.218 24.1725 509.192 20.3558 506.041 20.3558C502.965 20.3558 502.215 23.4989 502.215 25.4447C502.215 40.038 532 42.1334 532 54.5564C532 64.5098 520.371 69 508.217 69C500.565 69 485.935 66.3807 483.984 57.6247C482.934 52.6106 487.06 49.1681 491.187 49.1681Z" fill="white"/>
<path d="M179.084 67.0542C182.482 67.0542 185.236 64.3068 185.236 60.9176C185.236 57.5284 182.482 54.7809 179.084 54.7809C175.686 54.7809 172.932 57.5284 172.932 60.9176C172.932 64.3068 175.686 67.0542 179.084 67.0542Z" fill="white"/>
<path d="M109.986 0H139.396C151.175 0 165.204 2.76898 165.204 16.0152C165.204 24.5466 158.602 29.0369 151.55 31.0575C160.703 33.0781 170.006 37.6432 170.006 47.821C170.006 63.3124 154.926 67.0542 139.396 67.0542H109.986C108.561 67.0542 108.711 64.9588 109.986 64.2104C113.813 61.8905 113.813 48.7939 113.813 33.7516C113.813 18.7093 114.263 5.46312 109.986 2.91866C108.786 2.09544 108.561 0 109.986 0ZM130.168 29.7104C144.348 29.4859 148.924 25.8937 148.924 16.3894C148.924 9.57917 146.223 2.91866 139.396 2.91866C129.718 2.84382 130.093 15.8655 130.168 29.7104ZM130.168 33.5271C130.168 48.5694 129.418 64.2104 139.396 64.2104C148.699 64.2104 153.726 55.5293 153.726 48.7939C153.726 35.8471 146.898 32.7787 130.168 32.6291C130.168 32.8536 130.168 33.2278 130.168 33.5271Z" fill="white"/>
<path d="M87.7039 22.2267V22.1518C87.6288 21.3286 87.4038 20.5803 87.1037 19.9067C86.9536 19.6074 86.7285 19.2332 86.5035 19.0087C86.5035 18.9338 86.4284 18.9338 86.4284 18.859C86.3534 18.7842 86.2784 18.6345 86.2034 18.5597C86.1283 18.4848 86.1283 18.41 86.0533 18.41H85.9783C85.4531 17.8861 84.8529 17.4371 84.0276 17.0629L47.2655 0.748373C46.1402 0.299349 45.0148 0 43.8894 0C42.7641 0 41.5637 0.224512 40.5133 0.748373L3.75123 17.0629C3.00099 17.3623 2.32577 17.8861 1.80059 18.41H1.72557C1.65054 18.4848 1.65054 18.5597 1.57552 18.5597C1.50049 18.6345 1.42547 18.7093 1.35044 18.859C1.35044 18.9338 1.27542 18.9338 1.27542 19.0087C1.05035 19.308 0.825271 19.6074 0.675222 19.9067C0.300099 20.6551 0.0750247 21.4035 0 22.1518V22.2267C0 22.8254 0 23.4241 0.150049 23.9479V24.0228C0.300099 24.6215 0.450148 25.1453 0.750247 25.6692C0.825271 25.8189 0.975321 26.0434 1.05035 26.1931C1.20039 26.4176 1.35044 26.6421 1.57552 26.8666C1.65054 26.9414 1.72557 27.0911 1.87562 27.1659L40.4383 65.6323C42.3889 67.5781 45.465 67.5781 47.4156 65.6323L85.9783 27.1659C86.0533 27.0911 86.1283 26.9414 86.2784 26.8666C86.5035 26.6421 86.6535 26.4176 86.8036 26.1931C86.8786 26.0434 87.0286 25.8937 87.1037 25.6692C87.4038 25.1453 87.5538 24.6215 87.7039 24.0228V23.9479C87.7039 23.4241 87.7789 22.8254 87.7039 22.2267ZM82.2271 24.3221L45.465 40.6367C44.9398 40.8612 44.4146 40.936 43.8894 40.936C43.3643 40.936 42.8391 40.7863 42.3139 40.6367L5.55183 24.3221C4.65153 23.9479 4.50148 23.1247 4.50148 22.7505C4.50148 22.3015 4.65153 21.5531 5.55183 21.179L42.3139 4.78959C42.7641 4.56508 43.2892 4.49024 43.8144 4.49024C44.3396 4.49024 44.8648 4.63991 45.3899 4.78959L82.152 21.1041C83.0523 21.4783 83.2024 22.3015 83.2024 22.6757C83.2774 23.1247 83.1273 23.9479 82.2271 24.3221Z" fill="white"/>
<path d="M43.8893 32.1052C49.0687 32.1052 53.2674 27.917 53.2674 22.7505C53.2674 17.5841 49.0687 13.3959 43.8893 13.3959C38.7099 13.3959 34.5112 17.5841 34.5112 22.7505C34.5112 27.917 38.7099 32.1052 43.8893 32.1052Z" fill="white"/>
</g>
<defs>
<clipPath id="clip0_176_472">
<rect width="532" height="69" fill="white"/>
</clipPath>
</defs>
</svg>
