<svg width="339" height="260" viewBox="0 0 339 260" fill="none" xmlns="http://www.w3.org/2000/svg">
<g clip-path="url(#clip0_139_577)">
<path d="M339 86.183V85.8929C338.71 82.7009 337.84 79.7991 336.68 77.1875C336.1 76.0268 335.23 74.5759 334.36 73.7054C334.36 73.4152 334.07 73.4152 334.07 73.125C333.78 72.8348 333.49 72.2545 333.2 71.9643C332.91 71.6741 332.91 71.3839 332.62 71.3839H332.33C330.3 69.3527 327.98 67.6116 324.79 66.1607L182.695 2.90179C178.345 1.16071 173.995 0 169.645 0C165.295 0 160.655 0.870536 156.595 2.90179L14.4996 66.1607C11.5997 67.3214 8.98974 69.3527 6.95979 71.3839H6.6698C6.37981 71.6741 6.37981 71.9643 6.08982 71.9643C5.79983 72.2545 5.50984 72.5446 5.21985 73.125C5.21985 73.4152 4.92985 73.4152 4.92985 73.7054C4.05988 74.8661 3.18991 76.0268 2.60992 77.1875C1.15997 80.0893 0.289991 82.9911 0 85.8929V86.183C0 88.5045 0 90.8259 0.579983 92.8571V93.1473C1.15997 95.4688 1.73995 97.5 2.89991 99.5312C3.18991 100.112 3.76989 100.982 4.05988 101.563C4.63986 102.433 5.21985 103.304 6.08982 104.174C6.37981 104.464 6.6698 105.045 7.24979 105.335L156.305 254.487C163.845 262.031 175.735 262.031 183.275 254.487L332.33 105.335C332.62 105.045 332.91 104.464 333.49 104.174C334.36 103.304 334.94 102.433 335.52 101.563C335.81 100.982 336.39 100.402 336.68 99.5312C337.84 97.5 338.42 95.4688 339 93.1473V92.8571C339 90.8259 339.29 88.5045 339 86.183ZM317.831 94.308L175.735 157.567C173.705 158.438 171.675 158.728 169.645 158.728C167.615 158.728 165.585 158.147 163.555 157.567L21.4594 94.308C17.9795 92.8571 17.3995 89.6652 17.3995 88.2143C17.3995 86.4732 17.9795 83.5714 21.4594 82.1205L163.555 18.5714C165.295 17.7009 167.325 17.4107 169.355 17.4107C171.385 17.4107 173.415 17.9911 175.445 18.5714L317.541 81.8304C321.021 83.2813 321.601 86.4732 321.601 87.9241C321.891 89.6652 321.311 92.8571 317.831 94.308Z" fill="white"/>
<path d="M169.645 124.487C189.665 124.487 205.894 108.247 205.894 88.2142C205.894 68.1816 189.665 51.9419 169.645 51.9419C149.625 51.9419 133.396 68.1816 133.396 88.2142C133.396 108.247 149.625 124.487 169.645 124.487Z" fill="white"/>
</g>
<defs>
<clipPath id="clip0_139_577">
<rect width="339" height="260" fill="white"/>
</clipPath>
</defs>
</svg>
